<mxfile host="Electron" modified="2023-11-19T00:36:14.760Z" agent="Mozilla/5.0 (Windows NT 10.0; Win64; x64) AppleWebKit/537.36 (KHTML, like Gecko) draw.io/22.1.2 Chrome/114.0.5735.289 Electron/25.9.4 Safari/537.36" etag="4klwPzoTsX3v-xod6-bH" version="22.1.2" type="device">
  <diagram name="Page-1" id="VGWTmoPfHmEJr3dnDnHZ">
    <mxGraphModel dx="792" dy="1188" grid="1" gridSize="10" guides="1" tooltips="1" connect="1" arrows="1" fold="1" page="1" pageScale="1" pageWidth="850" pageHeight="1100" math="0" shadow="0">
      <root>
        <mxCell id="0" />
        <mxCell id="1" parent="0" />
        <mxCell id="DErpJyIl_ViFvCU1bUdc-1" value="" style="verticalLabelPosition=bottom;shadow=0;dashed=0;align=center;html=1;verticalAlign=top;shape=mxgraph.electrical.transistors.npn_transistor_5;" vertex="1" parent="1">
          <mxGeometry x="390" y="460" width="64" height="100" as="geometry" />
        </mxCell>
        <mxCell id="DErpJyIl_ViFvCU1bUdc-2" value="" style="verticalLabelPosition=bottom;shadow=0;dashed=0;align=center;html=1;verticalAlign=top;shape=mxgraph.electrical.transistors.pnp_transistor_5;" vertex="1" parent="1">
          <mxGeometry x="393" y="660" width="64" height="100" as="geometry" />
        </mxCell>
        <mxCell id="DErpJyIl_ViFvCU1bUdc-8" style="edgeStyle=orthogonalEdgeStyle;rounded=0;orthogonalLoop=1;jettySize=auto;html=1;exitX=0;exitY=0.165;exitDx=0;exitDy=0;exitPerimeter=0;endArrow=none;endFill=0;" edge="1" parent="1" source="DErpJyIl_ViFvCU1bUdc-4">
          <mxGeometry relative="1" as="geometry">
            <mxPoint x="130" y="575" as="targetPoint" />
          </mxGeometry>
        </mxCell>
        <mxCell id="DErpJyIl_ViFvCU1bUdc-4" value="" style="verticalLabelPosition=bottom;shadow=0;dashed=0;align=center;html=1;verticalAlign=top;shape=mxgraph.electrical.abstract.operational_amp_1;" vertex="1" parent="1">
          <mxGeometry x="220" y="560" width="98" height="90" as="geometry" />
        </mxCell>
        <mxCell id="DErpJyIl_ViFvCU1bUdc-7" value="" style="edgeStyle=orthogonalEdgeStyle;rounded=0;orthogonalLoop=1;jettySize=auto;html=1;endArrow=none;endFill=0;" edge="1" parent="1" source="DErpJyIl_ViFvCU1bUdc-5" target="DErpJyIl_ViFvCU1bUdc-6">
          <mxGeometry relative="1" as="geometry" />
        </mxCell>
        <mxCell id="DErpJyIl_ViFvCU1bUdc-5" value="GND&lt;br style=&quot;font-size: 16px;&quot;&gt;" style="pointerEvents=1;verticalLabelPosition=bottom;shadow=0;dashed=0;align=center;html=1;verticalAlign=top;shape=mxgraph.electrical.signal_sources.vss2;fontSize=16;flipV=1;" vertex="1" parent="1">
          <mxGeometry x="610" y="720" width="60" height="40" as="geometry" />
        </mxCell>
        <mxCell id="DErpJyIl_ViFvCU1bUdc-6" value="" style="pointerEvents=1;verticalLabelPosition=bottom;shadow=0;dashed=0;align=center;html=1;verticalAlign=top;shape=mxgraph.electrical.resistors.resistor_1;direction=south;" vertex="1" parent="1">
          <mxGeometry x="630" y="600" width="20" height="100" as="geometry" />
        </mxCell>
      </root>
    </mxGraphModel>
  </diagram>
</mxfile>
